<svg xmlns="http://www.w3.org/2000/svg" xml:space="preserve" width="1024" height="1024">
  <g stroke-width="0">
    <path fill="#308dea" d="M242.37505 341.16845c.11975-97.98072.2395-195.96144.479-293.94216 0-7.45375-.29938-15.08783 1.07775-22.30113C247.58419 5.56946 254.23034.09937 274.40831.09937 344.46236-.08096 414.51642.03926 484.57047.03926h500.73679c32.63202 0 39.03867 6.31164 39.03867 39.07207v700.05121c0 29.39422-7.42453 37.38896-36.70353 37.44907-102.80582.18033-205.67152-.06011-308.47734-.12022l-.41913.78144c-.11975-130.86137-.11975-261.78285-.479-392.64421-.11975-34.50364-7.90353-41.65683-42.39168-41.71694l-366.67609-.06011c-9.04116 0-17.96258-1.082-26.82412-1.6831z"/>
    <path fill="#a0d5f9" d="m678.62619 777.27283.41913-.78144c.35925 69.54828 1.13763 139.09656.83825 208.64484-.11975 25.84767-15.68732 38.65129-44.24782 38.7114-73.04782.18033-146.09563.06011-219.14345.06011-123.70229 0-247.46445.06011-371.16673-.18033a96.99792 97.37961 0 0 1-26.16549-3.78698C6.22702 1016.27367-.17963 1006.95648.11975 993.13098c.2395-11.24073.05988-22.42136.05988-33.66209C.17963 765.73155.23951 571.9341 0 378.19676c0-13.34461.41913-25.54712 14.07069-32.51998l2.09563.06011 1.91601-.72133 224.23285.18033c-.35925 60.71198 7.48441 119.74086 30.71601 176.54563 36.94304 90.28653 98.0158 158.57248 182.79917 205.45896 69.27568 38.35074 143.94012 53.85934 222.79584 50.07236z"/>
    <path fill="#fcfdfe" d="M678.62619 777.27283c-78.79584 3.72687-153.52017-11.78173-222.79584-50.07236-84.78337-46.88648-145.85613-115.17243-182.79917-205.45896-23.2316-56.80477-31.07526-115.83365-30.71601-176.54563a17.96258 18.03326 0 0 1 .05988-4.02743c8.86154.60111 17.78295 1.6831 26.64449 1.6831 122.2054.12022 244.47068.06011 366.67609.06011 34.42827 0 42.27193 7.2133 42.39168 41.71694.41913 130.92148.41913 261.78285.53888 392.64421zM18.08233 345.07566l-1.91601.72133-2.09563-.06011 4.01164-.66122z"/>
  </g>
</svg>
